<?xml version="1.0" encoding="UTF-8" standalone="no"?>
<!DOCTYPE svg PUBLIC "-//W3C//DTD SVG 1.1//EN" "http://www.w3.org/Graphics/SVG/1.1/DTD/svg11.dtd">
<svg width="100%" height="100%" viewBox="0 0 223 32" version="1.1" xmlns="http://www.w3.org/2000/svg" xmlns:xlink="http://www.w3.org/1999/xlink" xml:space="preserve" xmlns:serif="http://www.serif.com/" style="fill-rule:evenodd;clip-rule:evenodd;stroke-linejoin:round;stroke-miterlimit:2;">
    <g transform="matrix(1,0,0,1,-46.177826,-101.414667)">
        <g transform="matrix(1.333333,0,0,1.333333,0,0)">
            <path d="M34.633,99.195L38.561,88.967L40.02,88.967L44.206,99.195L42.664,99.195L41.471,96.098L37.194,96.098L36.071,99.195L34.633,99.195ZM37.585,94.995L41.052,94.995L39.985,92.163C39.659,91.302 39.417,90.595 39.259,90.042C39.129,90.698 38.945,91.349 38.708,91.995L37.585,94.995Z" style="fill:white;fill-rule:nonzero;"/>
            <path d="M44.184,95.909L45.46,95.798C45.521,96.309 45.661,96.729 45.882,97.057C46.103,97.385 46.446,97.65 46.912,97.852C47.377,98.055 47.9,98.156 48.481,98.156C48.998,98.156 49.453,98.079 49.849,97.926C50.244,97.772 50.538,97.562 50.731,97.294C50.924,97.027 51.021,96.735 51.021,96.419C51.021,96.098 50.928,95.817 50.742,95.578C50.556,95.338 50.249,95.137 49.821,94.974C49.546,94.867 48.939,94.701 48,94.476C47.06,94.25 46.402,94.037 46.025,93.837C45.537,93.581 45.173,93.264 44.934,92.885C44.694,92.506 44.574,92.081 44.574,91.612C44.574,91.095 44.721,90.613 45.014,90.164C45.307,89.715 45.735,89.374 46.298,89.142C46.86,88.909 47.486,88.793 48.174,88.793C48.932,88.793 49.601,88.915 50.18,89.159C50.759,89.403 51.205,89.763 51.516,90.237C51.828,90.712 51.995,91.249 52.019,91.849L50.721,91.946C50.651,91.3 50.415,90.812 50.013,90.481C49.61,90.151 49.016,89.986 48.23,89.986C47.412,89.986 46.815,90.136 46.441,90.436C46.066,90.736 45.879,91.098 45.879,91.521C45.879,91.888 46.012,92.191 46.277,92.428C46.537,92.665 47.217,92.908 48.317,93.157C49.417,93.406 50.172,93.623 50.581,93.809C51.177,94.084 51.616,94.431 51.9,94.852C52.184,95.273 52.326,95.758 52.326,96.307C52.326,96.851 52.17,97.364 51.858,97.845C51.546,98.327 51.099,98.701 50.515,98.969C49.931,99.236 49.274,99.37 48.544,99.37C47.619,99.37 46.843,99.235 46.217,98.965C45.592,98.695 45.101,98.29 44.745,97.748C44.389,97.206 44.202,96.593 44.184,95.909Z" style="fill:white;fill-rule:nonzero;"/>
            <path d="M56.134,99.195L56.134,90.174L52.764,90.174L52.764,88.967L60.871,88.967L60.871,90.174L57.487,90.174L57.487,99.195L56.134,99.195Z" style="fill:white;fill-rule:nonzero;"/>
            <path d="M61.637,99.195L61.637,88.967L66.172,88.967C67.084,88.967 67.777,89.059 68.251,89.243C68.726,89.427 69.105,89.751 69.389,90.216C69.672,90.681 69.814,91.195 69.814,91.758C69.814,92.484 69.579,93.095 69.11,93.593C68.64,94.091 67.914,94.407 66.933,94.542C67.291,94.714 67.563,94.884 67.749,95.051C68.145,95.414 68.519,95.867 68.872,96.412L70.652,99.195L68.949,99.195L67.596,97.067C67.2,96.453 66.875,95.984 66.619,95.658C66.363,95.333 66.134,95.105 65.932,94.974C65.729,94.844 65.524,94.753 65.314,94.702C65.161,94.67 64.91,94.653 64.561,94.653L62.991,94.653L62.991,99.195L61.637,99.195ZM62.991,93.481L65.9,93.481C66.519,93.481 67.003,93.417 67.351,93.289C67.7,93.162 67.965,92.957 68.147,92.676C68.328,92.394 68.419,92.088 68.419,91.758C68.419,91.274 68.243,90.877 67.892,90.565C67.541,90.253 66.986,90.098 66.228,90.098L62.991,90.098L62.991,93.481Z" style="fill:white;fill-rule:nonzero;"/>
            <path d="M70.881,94.214C70.881,92.516 71.336,91.187 72.248,90.227C73.16,89.266 74.337,88.786 75.778,88.786C76.723,88.786 77.574,89.012 78.332,89.463C79.09,89.914 79.668,90.543 80.066,91.35C80.463,92.157 80.662,93.072 80.662,94.095C80.662,95.133 80.453,96.06 80.034,96.879C79.616,97.698 79.023,98.317 78.255,98.738C77.488,99.159 76.66,99.37 75.771,99.37C74.809,99.37 73.948,99.137 73.19,98.672C72.432,98.207 71.857,97.572 71.467,96.767C71.076,95.963 70.881,95.112 70.881,94.214ZM72.276,94.235C72.276,95.467 72.607,96.438 73.27,97.148C73.933,97.857 74.764,98.212 75.764,98.212C76.783,98.212 77.621,97.854 78.28,97.137C78.938,96.421 79.267,95.405 79.267,94.088C79.267,93.256 79.126,92.529 78.845,91.908C78.563,91.287 78.152,90.806 77.61,90.464C77.068,90.122 76.46,89.951 75.785,89.951C74.827,89.951 74.003,90.28 73.312,90.938C72.621,91.596 72.276,92.695 72.276,94.235Z" style="fill:white;fill-rule:nonzero;"/>
            <path d="M81.708,99.195L81.708,88.967L83.061,88.967L83.061,97.988L88.098,97.988L88.098,99.195L81.708,99.195Z" style="fill:white;fill-rule:nonzero;"/>
            <path d="M88.655,94.214C88.655,92.516 89.111,91.187 90.023,90.227C90.935,89.266 92.111,88.786 93.553,88.786C94.497,88.786 95.349,89.012 96.107,89.463C96.865,89.914 97.443,90.543 97.84,91.35C98.238,92.157 98.437,93.072 98.437,94.095C98.437,95.133 98.228,96.06 97.809,96.879C97.39,97.698 96.797,98.317 96.03,98.738C95.263,99.159 94.435,99.37 93.546,99.37C92.583,99.37 91.723,99.137 90.965,98.672C90.207,98.207 89.632,97.572 89.241,96.767C88.851,95.963 88.655,95.112 88.655,94.214ZM90.051,94.235C90.051,95.467 90.382,96.438 91.045,97.148C91.708,97.857 92.539,98.212 93.539,98.212C94.558,98.212 95.396,97.854 96.054,97.137C96.713,96.421 97.042,95.405 97.042,94.088C97.042,93.256 96.901,92.529 96.62,91.908C96.338,91.287 95.926,90.806 95.385,90.464C94.843,90.122 94.235,89.951 93.56,89.951C92.602,89.951 91.778,90.28 91.087,90.938C90.396,91.596 90.051,92.695 90.051,94.235Z" style="fill:white;fill-rule:nonzero;"/>
            <path d="M104.324,95.184L104.324,93.984L108.657,93.977L108.657,97.772C107.992,98.302 107.306,98.701 106.599,98.969C105.892,99.236 105.166,99.37 104.422,99.37C103.417,99.37 102.505,99.155 101.684,98.724C100.863,98.294 100.243,97.672 99.824,96.858C99.406,96.044 99.196,95.135 99.196,94.13C99.196,93.135 99.404,92.206 99.821,91.343C100.237,90.48 100.836,89.839 101.617,89.421C102.399,89.002 103.299,88.793 104.317,88.793C105.057,88.793 105.726,88.913 106.323,89.152C106.921,89.392 107.39,89.725 107.729,90.153C108.069,90.581 108.327,91.139 108.503,91.828L107.283,92.163C107.129,91.642 106.938,91.232 106.71,90.935C106.483,90.637 106.157,90.399 105.734,90.22C105.31,90.041 104.841,89.951 104.324,89.951C103.706,89.951 103.171,90.045 102.72,90.234C102.268,90.422 101.905,90.67 101.628,90.977C101.351,91.284 101.136,91.621 100.982,91.988C100.722,92.621 100.592,93.307 100.592,94.046C100.592,94.958 100.749,95.721 101.063,96.335C101.377,96.949 101.834,97.405 102.434,97.702C103.034,98 103.671,98.149 104.345,98.149C104.931,98.149 105.503,98.036 106.062,97.81C106.62,97.585 107.043,97.344 107.331,97.088L107.331,95.184L104.324,95.184Z" style="fill:white;fill-rule:nonzero;"/>
            <path d="M112.891,99.195L112.891,94.863L108.949,88.967L110.595,88.967L112.612,92.051C112.984,92.628 113.33,93.205 113.651,93.781C113.958,93.246 114.33,92.644 114.768,91.974L116.749,88.967L118.326,88.967L114.244,94.863L114.244,99.195L112.891,99.195Z" style="fill:white;fill-rule:nonzero;"/>
            <path d="M118.967,99.195L118.967,88.967L125.867,88.967L125.867,90.174L120.32,90.174L120.32,93.342L125.12,93.342L125.12,94.549L120.32,94.549L120.32,99.195L118.967,99.195Z" style="fill:white;fill-rule:nonzero;"/>
            <path d="M126.57,94.214C126.57,92.516 127.026,91.187 127.938,90.227C128.849,89.266 130.026,88.786 131.468,88.786C132.412,88.786 133.263,89.012 134.021,89.463C134.78,89.914 135.358,90.543 135.755,91.35C136.153,92.157 136.352,93.072 136.352,94.095C136.352,95.133 136.142,96.06 135.724,96.879C135.305,97.698 134.712,98.317 133.945,98.738C133.177,99.159 132.349,99.37 131.461,99.37C130.498,99.37 129.638,99.137 128.88,98.672C128.121,98.207 127.547,97.572 127.156,96.767C126.766,95.963 126.57,95.112 126.57,94.214ZM127.966,94.235C127.966,95.467 128.297,96.438 128.96,97.148C129.623,97.857 130.454,98.212 131.454,98.212C132.473,98.212 133.311,97.854 133.969,97.137C134.627,96.421 134.956,95.405 134.956,94.088C134.956,93.256 134.816,92.529 134.534,91.908C134.253,91.287 133.841,90.806 133.299,90.464C132.757,90.122 132.149,89.951 131.475,89.951C130.517,89.951 129.692,90.28 129.002,90.938C128.311,91.596 127.966,92.695 127.966,94.235Z" style="fill:white;fill-rule:nonzero;"/>
            <path d="M144.165,88.967L145.518,88.967L145.518,94.877C145.518,95.905 145.402,96.721 145.169,97.326C144.937,97.93 144.517,98.422 143.91,98.801C143.303,99.18 142.507,99.37 141.52,99.37C140.562,99.37 139.779,99.205 139.169,98.874C138.56,98.544 138.125,98.066 137.865,97.441C137.604,96.815 137.474,95.96 137.474,94.877L137.474,88.967L138.827,88.967L138.827,94.87C138.827,95.758 138.91,96.413 139.075,96.834C139.24,97.255 139.524,97.579 139.926,97.807C140.329,98.035 140.82,98.149 141.402,98.149C142.397,98.149 143.107,97.923 143.53,97.472C143.953,97.021 144.165,96.153 144.165,94.87L144.165,88.967Z" style="fill:white;fill-rule:nonzero;"/>
            <path d="M147.115,99.195L147.115,88.967L148.503,88.967L153.875,96.998L153.875,88.967L155.173,88.967L155.173,99.195L153.785,99.195L148.412,91.158L148.412,99.195L147.115,99.195Z" style="fill:white;fill-rule:nonzero;"/>
            <path d="M156.805,99.195L156.805,88.967L160.328,88.967C161.123,88.967 161.73,89.016 162.149,89.114C162.735,89.249 163.235,89.493 163.649,89.846C164.188,90.302 164.592,90.885 164.859,91.594C165.127,92.303 165.26,93.114 165.26,94.026C165.26,94.802 165.17,95.491 164.988,96.091C164.807,96.691 164.574,97.187 164.291,97.58C164.007,97.973 163.696,98.283 163.359,98.508C163.022,98.734 162.615,98.905 162.138,99.021C161.662,99.137 161.114,99.195 160.495,99.195L156.805,99.195ZM158.158,97.988L160.342,97.988C161.016,97.988 161.545,97.926 161.929,97.8C162.313,97.674 162.619,97.498 162.846,97.27C163.167,96.949 163.417,96.517 163.596,95.976C163.776,95.434 163.865,94.777 163.865,94.005C163.865,92.935 163.69,92.113 163.338,91.538C162.987,90.964 162.56,90.579 162.058,90.384C161.695,90.244 161.112,90.174 160.307,90.174L158.158,90.174L158.158,97.988Z" style="fill:white;fill-rule:nonzero;"/>
            <path d="M166.438,99.195L166.438,88.967L168.476,88.967L170.897,96.209C171.12,96.884 171.283,97.388 171.385,97.723C171.501,97.351 171.683,96.805 171.929,96.084L174.378,88.967L176.199,88.967L176.199,99.195L174.894,99.195L174.894,90.635L171.922,99.195L170.701,99.195L167.743,90.488L167.743,99.195L166.438,99.195Z" style="fill:white;fill-rule:nonzero;"/>
            <path d="M177.768,99.195L177.768,88.967L185.163,88.967L185.163,90.174L179.121,90.174L179.121,93.307L184.779,93.307L184.779,94.507L179.121,94.507L179.121,97.988L185.4,97.988L185.4,99.195L177.768,99.195Z" style="fill:white;fill-rule:nonzero;"/>
        </g>
        <g transform="matrix(0,-30.845385,-30.845385,0,261.653723,132.260186)">
            <path d="M0.985,-0.161L0.602,0.106L0.595,0.106C0.597,0.068 0.603,0.031 0.603,-0.006L0.6,-0.008L0.275,0.215C0.272,0.216 0.272,0.211 0.272,0.21C0.27,0.189 0.277,0.155 0.279,0.132C0.279,0.128 0.281,0.102 0.28,0.1C0.279,0.099 0.278,0.099 0.277,0.098C0.244,0.109 0.211,0.119 0.178,0.13C0.126,0.148 0.072,0.17 0.019,0.186C0.012,0.188 0.005,0.191 -0,0.184L0.001,0.178L0.409,-0.108L0.415,-0.108C0.414,-0.092 0.413,-0.076 0.411,-0.06C0.41,-0.041 0.405,-0.016 0.405,0.003C0.405,0.005 0.406,0.009 0.409,0.009L0.735,-0.216C0.738,-0.216 0.737,-0.216 0.737,-0.214C0.739,-0.211 0.738,-0.206 0.738,-0.202C0.738,-0.199 0.737,-0.197 0.738,-0.195C0.733,-0.158 0.73,-0.12 0.728,-0.083C0.729,-0.082 0.73,-0.081 0.731,-0.081C0.734,-0.08 0.761,-0.091 0.766,-0.093C0.84,-0.122 0.914,-0.153 0.988,-0.182C0.99,-0.183 0.997,-0.182 0.998,-0.18C1,-0.179 1,-0.178 1,-0.177C1,-0.171 0.989,-0.164 0.985,-0.161Z" style="fill:url(#_Linear1);fill-rule:nonzero;"/>
        </g>
    </g>
    <defs>
        <linearGradient id="_Linear1" x1="0" y1="0" x2="1" y2="0" gradientUnits="userSpaceOnUse" gradientTransform="matrix(1,0,0,-1,0,-0.00058)"><stop offset="0" style="stop-color:rgb(117,211,79);stop-opacity:1"/><stop offset="0.84" style="stop-color:rgb(38,155,197);stop-opacity:1"/><stop offset="1" style="stop-color:rgb(38,155,197);stop-opacity:1"/></linearGradient>
    </defs>
</svg>
