<?xml version="1.0" encoding="UTF-8" standalone="no"?>
<!DOCTYPE svg PUBLIC "-//W3C//DTD SVG 1.1//EN" "http://www.w3.org/Graphics/SVG/1.1/DTD/svg11.dtd">
<svg width="100%" height="100%" viewBox="0 0 14 31" version="1.1" xmlns="http://www.w3.org/2000/svg" xmlns:xlink="http://www.w3.org/1999/xlink" xml:space="preserve" xmlns:serif="http://www.serif.com/" style="fill-rule:evenodd;clip-rule:evenodd;stroke-linejoin:round;stroke-miterlimit:2;">
    <g transform="matrix(1,0,0,1,-255.025381,-101.414667)">
        <g transform="matrix(1179.762288,0,0,-1179.762288,-28.621565,665.212153)">
            <rect x="0.024" y="-0.5" width="0.951" height="1" style="fill:url(#_Linear1);"/>
        </g>
        <g transform="matrix(0,-30.845385,-30.845385,0,261.653723,132.260344)">
            <path d="M0.985,-0.161L0.602,0.106L0.595,0.106C0.597,0.068 0.603,0.031 0.603,-0.006L0.6,-0.008L0.275,0.215C0.272,0.216 0.272,0.211 0.272,0.21C0.27,0.189 0.277,0.155 0.279,0.132C0.279,0.128 0.281,0.102 0.279,0.1C0.279,0.099 0.278,0.099 0.277,0.098C0.244,0.109 0.211,0.119 0.178,0.13C0.126,0.148 0.072,0.17 0.019,0.186C0.012,0.188 0.005,0.191 0,0.184L0.001,0.178L0.409,-0.108L0.415,-0.108C0.413,-0.092 0.413,-0.076 0.411,-0.06C0.41,-0.041 0.405,-0.016 0.405,0.003C0.405,0.005 0.406,0.009 0.409,0.009L0.735,-0.216C0.738,-0.216 0.737,-0.216 0.737,-0.214C0.739,-0.211 0.738,-0.206 0.738,-0.202C0.738,-0.2 0.737,-0.197 0.738,-0.195C0.733,-0.158 0.73,-0.12 0.728,-0.083C0.729,-0.082 0.73,-0.081 0.731,-0.081C0.734,-0.08 0.761,-0.091 0.766,-0.093C0.84,-0.122 0.914,-0.153 0.988,-0.182C0.99,-0.183 0.996,-0.182 0.998,-0.18C1,-0.179 1,-0.178 1,-0.177C1,-0.171 0.989,-0.164 0.985,-0.161Z" style="fill:url(#_Linear2);fill-rule:nonzero;"/>
        </g>
        <g transform="matrix(1,0,0,1,11.551433,29.653418)">
            <g transform="matrix(19.051467,0,0,19.051467,236.672406,102.606982)">
            </g>
            <text x="34.654px" y="102.607px" style="font-family:'ArialMT', 'Arial', sans-serif;font-size:19.051px;fill:white;">A<tspan x="46.504px 58.354px 69.134px 82.035px 95.997px 105.735px 119.696px 133.658px 145.508px 156.288px 170.249px 183.15px 196.051px 208.953px 223.965px " y="102.607px 102.607px 102.607px 102.607px 102.607px 102.607px 102.607px 102.607px 102.607px 102.607px 102.607px 102.607px 102.607px 102.607px 102.607px ">STROLOGYFOUNDME</tspan></text>
        </g>
    </g>
    <defs>
        <linearGradient id="_Linear1" x1="0" y1="0" x2="1" y2="0" gradientUnits="userSpaceOnUse" gradientTransform="matrix(0,1,1,0,0.5,-0.5)"><stop offset="0" style="stop-color:rgb(204,255,102);stop-opacity:1"/><stop offset="1" style="stop-color:black;stop-opacity:1"/></linearGradient>
        <linearGradient id="_Linear2" x1="0" y1="0" x2="1" y2="0" gradientUnits="userSpaceOnUse" gradientTransform="matrix(1,0,0,-1,0,-0.00058)"><stop offset="0" style="stop-color:rgb(117,211,79);stop-opacity:1"/><stop offset="0.84" style="stop-color:rgb(38,155,197);stop-opacity:1"/><stop offset="1" style="stop-color:rgb(38,155,197);stop-opacity:1"/></linearGradient>
    </defs>
</svg>
