<?xml version="1.0" encoding="UTF-8" standalone="no"?>
<!DOCTYPE svg PUBLIC "-//W3C//DTD SVG 1.1//EN" "http://www.w3.org/Graphics/SVG/1.1/DTD/svg11.dtd">
<svg width="100%" height="100%" viewBox="0 0 743 392" version="1.1" xmlns="http://www.w3.org/2000/svg" xmlns:xlink="http://www.w3.org/1999/xlink" xml:space="preserve" xmlns:serif="http://www.serif.com/" style="fill-rule:evenodd;clip-rule:evenodd;stroke-linejoin:round;stroke-miterlimit:2;">
    <g transform="matrix(1,0,0,1,-470.757523,-409.922844)">
        <g transform="matrix(2,0,0,2,770.4658,733.2686)">
            <path d="M0,-128.636C1.507,-127.816 4.078,-129.249 5.208,-131.64C5.799,-132.89 6.652,-134.363 6.454,-136.136C6.358,-137.001 5.66,-139.007 4.838,-139.905C4.156,-140.65 2.11,-141.43 1.221,-141.718C-0.208,-142.182 -3.592,-141.265 -4.535,-139.8C-5.868,-137.729 -4.493,-133.944 -3.314,-132.299C-2.258,-130.824 -1.473,-129.436 0,-128.636M48.843,-40.54C49.341,-39.036 49.623,-37.277 50.066,-35.655C51.874,-29.018 53.535,-22.108 52.856,-13.502C52.693,-11.428 52.011,-9.475 51.809,-7.57C51.656,-6.141 51.826,-4.632 51.635,-3.209C51.412,-1.56 50.82,0.223 50.588,1.849C50.306,3.828 50.133,5.504 49.541,6.733C48.783,8.309 47.225,9.227 45.879,10.92C44.546,12.596 43.604,14.488 41.691,14.584C39.258,14.703 35.212,10.923 34.539,8.304C34.043,6.367 34.696,3.203 34.713,1.152C34.729,-0.803 34.173,-2.908 34.015,-5.302C33.892,-7.192 34.365,-9.212 34.365,-11.233C34.365,-12.638 33.849,-14.143 33.841,-15.595C33.824,-18.509 34.418,-21.875 34.713,-25.014C35.353,-31.809 36.32,-36.008 38.377,-41.586C39.331,-44.172 40.111,-48.492 41.691,-49.087C44.815,-50.26 48.138,-42.677 48.843,-40.54M-39.598,-83.975C-39.582,-84.223 -39.568,-84.469 -39.772,-84.498C-39.286,-84.891 -38.825,-84.424 -38.376,-83.975C-38.641,-83.447 -39.142,-84.119 -39.598,-83.975M220.316,-96.534C218.864,-99.777 215.413,-100.815 212.815,-103.337C211.835,-104.289 211.036,-105.446 210.199,-106.477C209.276,-107.615 208.411,-108.427 207.233,-109.443C205.095,-111.285 202.782,-112.523 200.256,-114.327C196.85,-116.757 193.562,-119.48 191.01,-122.874C189.908,-124.339 188.993,-125.745 187.871,-125.665C186.033,-125.534 185.289,-121.3 184.557,-120.083C182.72,-117.031 180.056,-115.197 177.23,-113.454C170.98,-109.601 160.516,-107.114 152.461,-110.14C151.157,-110.63 149.941,-111.483 148.447,-111.885C146.718,-112.35 145.804,-111.938 144.261,-112.583C142.817,-113.185 141.158,-115.233 140.423,-116.769C139.629,-118.429 139.399,-121.901 137.632,-122.176C136.495,-122.354 135.268,-120.155 134.318,-118.863C131.114,-114.506 127.74,-111.49 125.246,-107C123.459,-103.779 121.644,-101.548 119.491,-98.802C118.273,-97.248 114.63,-90.944 112.165,-92.347C110.557,-93.263 111.96,-97.012 112.689,-98.453C113.117,-99.301 113.818,-99.992 114.607,-100.721C115.355,-101.411 116.565,-102.271 116.351,-103.337C116.072,-104.726 114.483,-104.675 113.385,-105.081C112.005,-105.592 110.31,-106.072 109.548,-106.477C107.044,-107.807 106.14,-110.242 103.791,-111.362C99.458,-113.428 91.186,-113.232 86.173,-112.234C84.179,-111.837 82.147,-111.531 80.592,-111.013C79.623,-110.689 78.612,-110.834 77.595,-110.444C76.443,-110.002 75.212,-109.011 74.137,-108.571C72.716,-107.988 71.297,-107.119 69.776,-106.477C68.193,-105.809 66.497,-105.17 65.241,-104.384C62.642,-102.757 60.872,-100.007 59.135,-96.883C57.504,-93.948 55.515,-90.967 53.902,-88.336C51.373,-84.209 48.873,-79.621 46.577,-75.253C45.572,-73.344 45.005,-71.531 43.263,-71.589C41.709,-71.642 41.163,-73.318 39.774,-75.601C38.757,-77.27 37.432,-78.829 36.634,-80.138C34.58,-83.497 32.677,-86.752 30.527,-89.382C28.084,-92.37 26.28,-95.411 24.073,-98.104C21.774,-100.907 19.748,-104.199 17.445,-106.826C16.344,-108.079 14.784,-109.327 13.258,-110.663C11.745,-111.989 10.226,-113.694 8.722,-114.327C7.762,-114.731 6.298,-114.83 4.885,-115.2C3.373,-115.594 2.12,-116.229 0.872,-116.071C-1.43,-115.78 -3.368,-113.003 -5.233,-111.536C-6.201,-110.774 -7.374,-110.201 -8.373,-109.443C-9.503,-108.584 -10.241,-107.477 -10.99,-106.651C-13.176,-104.244 -16.316,-100.751 -18.839,-98.453C-19.863,-97.52 -21.22,-96.478 -22.327,-96.534C-24.605,-96.649 -25.463,-100.124 -28.084,-100.895C-29.298,-101.252 -30.696,-101.246 -32.097,-101.069C-36.568,-100.504 -40.982,-96.702 -42.214,-92.696C-42.929,-90.374 -42.148,-88.678 -42.214,-86.242C-44.253,-86.749 -45.435,-87.729 -46.575,-89.033C-47.766,-90.395 -48.491,-92.195 -50.413,-92.522C-53.81,-93.1 -56.796,-90.524 -59.482,-89.731C-61.107,-89.252 -62.99,-89.265 -64.716,-88.859C-66.506,-88.439 -67.801,-87.416 -69.252,-87.288C-71.29,-87.109 -73.227,-87.938 -75.183,-88.511C-76.964,-89.031 -78.816,-89.48 -80.765,-90.08C-83.468,-90.912 -89.113,-92.905 -90.01,-95.313C-90.814,-97.472 -88.96,-101.585 -88.265,-104.034C-85.89,-112.413 -85.113,-121.558 -86.347,-132.12C-87.412,-141.229 -90.223,-149.246 -94.72,-154.796C-97.586,-158.334 -102.435,-162.775 -109.372,-161.425C-112.293,-160.858 -116.344,-160.01 -119.141,-158.808C-120.689,-158.145 -121.635,-157.304 -122.979,-156.367C-124.194,-155.518 -125.542,-154.816 -126.641,-153.924C-128.87,-152.12 -130.67,-149.826 -132.573,-147.644C-136.498,-143.145 -139.135,-137.987 -141.644,-132.295C-142.855,-129.545 -143.683,-126.444 -144.609,-123.223C-145.493,-120.15 -146.89,-117.138 -147.575,-113.978C-148.304,-110.615 -148.675,-106.9 -149.145,-103.337C-150.124,-95.885 -149.867,-88.19 -149.668,-80.312C-149.57,-76.488 -149.124,-72.652 -148.971,-68.799C-148.814,-64.877 -149.014,-60.981 -148.621,-57.111C-148.238,-53.331 -148.284,-49.476 -148.447,-45.772C-148.778,-38.233 -149.053,-29.989 -148.272,-22.747C-147.93,-19.567 -146.858,-16.032 -146.179,-12.804C-145.389,-9.051 -145.396,-4.885 -144.26,-2.513C-143.385,-0.686 -140.722,2.011 -138.678,2.023C-136.355,2.038 -133.861,-0.458 -132.922,-2.513C-132.357,-3.747 -132.18,-5.38 -131.875,-7.222C-131.594,-8.921 -131.177,-10.665 -131.177,-12.281C-131.177,-14.543 -131.778,-16.946 -132.05,-18.734C-132.241,-20.004 -132.149,-21.281 -132.225,-22.573C-132.671,-30.186 -134.189,-36.712 -135.713,-43.505C-136.195,-45.657 -137.034,-47.636 -137.457,-49.785C-137.918,-52.128 -138.27,-54.395 -138.503,-56.937C-138.74,-59.517 -138.532,-62.179 -138.678,-64.962C-138.807,-67.4 -139.296,-69.924 -139.375,-72.462C-139.542,-77.763 -139.109,-83.02 -138.853,-88.161C-138.603,-93.192 -138.033,-98.15 -137.457,-102.988C-136.546,-110.642 -136.628,-118.258 -134.492,-124.444C-133.778,-126.514 -133.288,-128.813 -132.398,-130.549C-131.401,-132.499 -129.36,-134.117 -127.863,-136.132C-126.497,-137.972 -125.134,-139.813 -123.502,-141.539C-121.941,-143.191 -120.183,-144.996 -118.269,-146.074C-117.278,-146.632 -116.175,-147.114 -115.128,-147.819C-113.936,-148.624 -112.884,-149.274 -111.814,-149.389C-107.133,-149.892 -105.649,-147.256 -103.791,-144.854C-100.321,-140.368 -96.799,-136.38 -96.289,-129.503C-95.939,-124.767 -95.749,-119.703 -96.289,-115.024C-96.539,-112.872 -97.162,-110.718 -97.51,-108.571C-97.87,-106.361 -97.843,-103.788 -98.383,-101.767C-98.79,-100.245 -99.59,-98.488 -100.301,-96.36C-100.711,-95.135 -102.507,-92.109 -101.872,-90.777C-101.198,-89.368 -98.272,-89.817 -96.988,-89.382C-95.669,-88.936 -94.581,-87.797 -93.324,-86.94C-89.401,-84.264 -85.616,-82.795 -80.241,-81.708C-77.043,-81.059 -73.717,-80.198 -70.298,-79.44C-66.81,-78.666 -63.619,-77.295 -59.833,-77.52C-58.918,-77.575 -57.836,-77.798 -57.041,-78.044C-54.484,-78.834 -53.464,-81.267 -50.587,-81.533C-49.276,-81.653 -48,-81.195 -46.575,-80.835C-45.222,-80.493 -43.816,-80.251 -42.562,-79.962C-39.872,-79.343 -37.46,-78.026 -35.411,-77.52C-33.364,-77.015 -29.132,-76.452 -27.038,-76.997C-25.745,-77.334 -24.088,-79.235 -23.2,-80.66C-22.444,-81.874 -22.372,-83.747 -21.805,-85.196C-21.327,-86.416 -20.651,-87.887 -19.885,-88.685C-18.587,-90.038 -16.109,-90.52 -14.304,-91.649C-13.028,-92.449 -11.744,-94.184 -10.118,-95.662C-6.856,-98.624 -4.713,-100.791 -1.046,-103.163C1.057,-104.523 2.712,-105.802 4.711,-105.78C6.894,-105.753 9.29,-104.005 10.99,-102.814C12.97,-101.425 14.633,-99.884 15.699,-98.278C16.399,-97.226 17.209,-95.176 17.793,-94.266C19.348,-91.845 21.98,-90.202 23.898,-87.812C25.734,-85.523 27.209,-82.772 28.956,-80.312C30.816,-77.691 32.391,-75.404 33.667,-72.462C34.935,-69.536 35.784,-66.365 37.155,-63.391C37.878,-61.823 39.394,-60.371 39.598,-58.506C39.88,-55.921 38.007,-52.548 37.155,-49.61C36.207,-46.326 35.242,-43.496 34.365,-40.888C32.457,-35.217 30.767,-29.285 29.306,-22.922C28.617,-19.921 27.189,-16.973 27.038,-13.675C26.711,-6.537 25.428,0.375 25.468,7.78C25.477,9.492 25.801,11.39 25.817,13.188C25.835,15.086 25.298,16.913 25.468,18.595C25.717,21.044 27.056,22.641 28.259,24.352C30.109,26.981 32.239,29.067 34.365,31.503C35.353,32.636 36.815,34.139 38.377,34.12C40.877,34.089 42.017,31.349 44.134,30.108C45.094,29.545 46.761,29.274 47.449,28.712C48.498,27.854 49.436,25.524 50.413,23.828C51.444,22.037 52.13,20.009 52.856,18.246C54.506,14.232 56.58,11.541 58.263,7.605C60.688,1.933 62.13,-4.536 62.449,-12.107C62.564,-14.811 63.157,-17.628 62.973,-19.607C62.812,-21.345 61.226,-22.804 60.879,-24.316C60.545,-25.781 60.728,-27.411 60.531,-28.852C60.334,-30.294 60.073,-31.696 59.833,-33.039C59.344,-35.768 58.937,-38.546 58.263,-41.238C57.832,-42.957 56.968,-44.685 56.344,-46.471C55.691,-48.339 55.321,-50.384 54.6,-52.052C53.833,-53.829 52.384,-55.793 51.112,-57.809C49.946,-59.653 47.97,-62.029 47.797,-63.914C47.479,-67.384 50.562,-71.692 52.682,-74.73C53.772,-76.291 55.028,-77.681 56.17,-79.091C57.358,-80.557 58.714,-81.843 59.833,-83.277C61.005,-84.779 62.037,-86.932 63.672,-88.685C65.312,-90.444 67.41,-91.709 68.73,-93.045C70.034,-94.367 70.768,-95.981 72.393,-97.406C73.781,-98.624 75.912,-99.678 77.625,-101.069C81.427,-104.157 84.9,-107.745 92.976,-107C94.896,-106.823 96.15,-106.673 97.715,-106.509C99.361,-106.337 100.13,-105.738 102.047,-105.081C104.155,-104.361 104.156,-101.602 103.618,-98.976C103.052,-96.225 101.541,-94.649 101.349,-92.696C101.338,-92.586 101.341,-92.458 101.349,-92.347C101.685,-87.406 103.491,-80.272 107.629,-79.787C109.607,-79.557 112.012,-80.94 113.385,-81.881C115.348,-83.223 117.265,-85.779 119.141,-87.288C120.781,-88.607 121.486,-89.656 122.63,-91.301C123.149,-92.045 123.764,-92.722 124.376,-93.394C125.678,-94.826 127.428,-95.736 128.387,-96.883C128.977,-97.59 129.304,-98.593 129.957,-99.5C130.531,-100.296 131.403,-100.957 132.052,-101.767C133.47,-103.541 134.204,-105.463 136.411,-105.954C137.804,-106.263 139.915,-105.533 142.169,-105.081C144.536,-104.608 147.106,-104.825 149.146,-104.558C150.417,-104.392 151.756,-103.88 152.982,-103.86C154.408,-103.838 155.617,-104.219 157.169,-104.384C158.465,-104.521 159.812,-104.607 161.182,-104.733C166.459,-105.218 171.13,-106.102 175.66,-107.35C178.165,-108.039 180.694,-108.374 182.637,-109.094C185.049,-109.985 186.597,-112.155 189.614,-111.885C191.594,-111.708 192.421,-110.331 194.498,-109.094C196.234,-108.062 198.092,-107.368 199.383,-106.477C202.636,-104.235 206.926,-99.674 208.28,-96.186C208.929,-94.513 209.783,-90.564 209.675,-88.685C209.552,-86.542 208.185,-84.283 207.058,-82.754C206.066,-81.405 204.836,-79.882 202.698,-79.44C201.321,-79.154 199.97,-79.455 198.859,-79.787C197.711,-80.131 196.67,-80.627 195.545,-81.183C194.727,-81.589 193.479,-82.747 192.057,-81.881C191.878,-79.491 193.916,-79.035 195.197,-77.87C196.582,-76.607 197.571,-75.044 199.209,-74.206C200.466,-73.562 202.264,-73.061 203.918,-72.811C210.931,-71.75 213.091,-75.501 215.956,-79.091C217.614,-81.168 219.615,-83.735 220.491,-86.068C221.551,-88.894 221.588,-93.692 220.316,-96.534" style="fill:white;fill-rule:nonzero;"/>
        </g>
    </g>
</svg>
